<svg width="202" height="93" viewBox="0 0 202 93" fill="none" xmlns="http://www.w3.org/2000/svg">
<g filter="url(#filter0_d)">
<rect x="25" y="21" width="152" height="43" rx="21.5" fill="#0096FE"/>
<path d="M47.5532 42.114C47.5532 41.162 47.7725 40.308 48.2112 39.552C48.6592 38.796 49.2612 38.208 50.0172 37.788C50.7825 37.3587 51.6178 37.144 52.5232 37.144C53.5592 37.144 54.4785 37.4007 55.2812 37.914C56.0932 38.418 56.6812 39.1367 57.0452 40.07H55.1272C54.8752 39.5567 54.5252 39.174 54.0772 38.922C53.6292 38.67 53.1112 38.544 52.5232 38.544C51.8792 38.544 51.3052 38.6887 50.8012 38.978C50.2972 39.2673 49.9005 39.6827 49.6112 40.224C49.3312 40.7653 49.1912 41.3953 49.1912 42.114C49.1912 42.8327 49.3312 43.4627 49.6112 44.004C49.9005 44.5453 50.2972 44.9653 50.8012 45.264C51.3052 45.5533 51.8792 45.698 52.5232 45.698C53.1112 45.698 53.6292 45.572 54.0772 45.32C54.5252 45.068 54.8752 44.6853 55.1272 44.172H57.0452C56.6812 45.1053 56.0932 45.824 55.2812 46.328C54.4785 46.832 53.5592 47.084 52.5232 47.084C51.6085 47.084 50.7732 46.874 50.0172 46.454C49.2612 46.0247 48.6592 45.432 48.2112 44.676C47.7725 43.92 47.5532 43.066 47.5532 42.114ZM62.2593 47.126C61.5313 47.126 60.8733 46.9627 60.2853 46.636C59.6973 46.3 59.2353 45.8333 58.8993 45.236C58.5633 44.6293 58.3953 43.9293 58.3953 43.136C58.3953 42.352 58.5679 41.6567 58.9133 41.05C59.2586 40.4433 59.7299 39.9767 60.3273 39.65C60.9246 39.3233 61.5919 39.16 62.3293 39.16C63.0666 39.16 63.7339 39.3233 64.3313 39.65C64.9286 39.9767 65.3999 40.4433 65.7453 41.05C66.0906 41.6567 66.2633 42.352 66.2633 43.136C66.2633 43.92 66.0859 44.6153 65.7313 45.222C65.3766 45.8287 64.8913 46.3 64.2753 46.636C63.6686 46.9627 62.9966 47.126 62.2593 47.126ZM62.2593 45.74C62.6699 45.74 63.0526 45.642 63.4073 45.446C63.7713 45.25 64.0653 44.956 64.2893 44.564C64.5133 44.172 64.6253 43.696 64.6253 43.136C64.6253 42.576 64.5179 42.1047 64.3033 41.722C64.0886 41.33 63.8039 41.036 63.4493 40.84C63.0946 40.644 62.7119 40.546 62.3013 40.546C61.8906 40.546 61.5079 40.644 61.1533 40.84C60.8079 41.036 60.5326 41.33 60.3273 41.722C60.1219 42.1047 60.0193 42.576 60.0193 43.136C60.0193 43.9667 60.2293 44.6107 60.6493 45.068C61.0786 45.516 61.6153 45.74 62.2593 45.74ZM71.733 39.16C72.3397 39.16 72.881 39.286 73.357 39.538C73.8423 39.79 74.2203 40.1633 74.491 40.658C74.7617 41.1527 74.897 41.75 74.897 42.45V47H73.315V42.688C73.315 41.9973 73.1423 41.47 72.797 41.106C72.4517 40.7327 71.9803 40.546 71.383 40.546C70.7857 40.546 70.3097 40.7327 69.955 41.106C69.6097 41.47 69.437 41.9973 69.437 42.688V47H67.841V39.286H69.437V40.168C69.6983 39.8507 70.0297 39.6033 70.431 39.426C70.8417 39.2487 71.2757 39.16 71.733 39.16ZM78.7948 40.588V44.858C78.7948 45.1473 78.8601 45.3573 78.9908 45.488C79.1308 45.6093 79.3641 45.67 79.6908 45.67H80.6708V47H79.4108C78.6921 47 78.1415 46.832 77.7588 46.496C77.3761 46.16 77.1848 45.614 77.1848 44.858V40.588H76.2748V39.286H77.1848V37.368H78.7948V39.286H80.6708V40.588H78.7948ZM81.6098 43.108C81.6098 42.3333 81.7685 41.6473 82.0858 41.05C82.4125 40.4527 82.8511 39.9907 83.4018 39.664C83.9618 39.328 84.5778 39.16 85.2498 39.16C85.8565 39.16 86.3838 39.2813 86.8318 39.524C87.2891 39.7573 87.6531 40.0513 87.9238 40.406V39.286H89.5338V47H87.9238V45.852C87.6531 46.216 87.2845 46.5193 86.8178 46.762C86.3511 47.0047 85.8191 47.126 85.2218 47.126C84.5591 47.126 83.9525 46.958 83.4018 46.622C82.8511 46.2767 82.4125 45.8007 82.0858 45.194C81.7685 44.578 81.6098 43.8827 81.6098 43.108ZM87.9238 43.136C87.9238 42.604 87.8118 42.142 87.5878 41.75C87.3731 41.358 87.0885 41.0593 86.7338 40.854C86.3791 40.6487 85.9965 40.546 85.5858 40.546C85.1751 40.546 84.7925 40.6487 84.4378 40.854C84.0831 41.05 83.7938 41.344 83.5698 41.736C83.3551 42.1187 83.2478 42.576 83.2478 43.108C83.2478 43.64 83.3551 44.1067 83.5698 44.508C83.7938 44.9093 84.0831 45.2173 84.4378 45.432C84.8018 45.6373 85.1845 45.74 85.5858 45.74C85.9965 45.74 86.3791 45.6373 86.7338 45.432C87.0885 45.2267 87.3731 44.928 87.5878 44.536C87.8118 44.1347 87.9238 43.668 87.9238 43.136ZM91.0981 43.136C91.0981 42.3427 91.2567 41.6473 91.5741 41.05C91.9007 40.4433 92.3487 39.9767 92.9181 39.65C93.4874 39.3233 94.1407 39.16 94.8781 39.16C95.8114 39.16 96.5814 39.384 97.1881 39.832C97.8041 40.2707 98.2194 40.9007 98.4341 41.722H96.7121C96.5721 41.3393 96.3481 41.0407 96.0401 40.826C95.7321 40.6113 95.3447 40.504 94.8781 40.504C94.2247 40.504 93.7021 40.7373 93.3101 41.204C92.9274 41.6613 92.7361 42.3053 92.7361 43.136C92.7361 43.9667 92.9274 44.6153 93.3101 45.082C93.7021 45.5487 94.2247 45.782 94.8781 45.782C95.8021 45.782 96.4134 45.376 96.7121 44.564H98.4341C98.2101 45.348 97.7901 45.9733 97.1741 46.44C96.5581 46.8973 95.7927 47.126 94.8781 47.126C94.1407 47.126 93.4874 46.9627 92.9181 46.636C92.3487 46.3 91.9007 45.8333 91.5741 45.236C91.2567 44.6293 91.0981 43.9293 91.0981 43.136ZM101.887 40.588V44.858C101.887 45.1473 101.952 45.3573 102.083 45.488C102.223 45.6093 102.456 45.67 102.783 45.67H103.763V47H102.503C101.784 47 101.233 46.832 100.851 46.496C100.468 46.16 100.277 45.614 100.277 44.858V40.588H99.3666V39.286H100.277V37.368H101.887V39.286H103.763V40.588H101.887ZM110.452 37.27V43.472C110.452 44.2093 110.644 44.7647 111.026 45.138C111.418 45.5113 111.96 45.698 112.65 45.698C113.35 45.698 113.892 45.5113 114.274 45.138C114.666 44.7647 114.862 44.2093 114.862 43.472V37.27H116.458V43.444C116.458 44.2373 116.286 44.9093 115.94 45.46C115.595 46.0107 115.133 46.4213 114.554 46.692C113.976 46.9627 113.336 47.098 112.636 47.098C111.936 47.098 111.297 46.9627 110.718 46.692C110.149 46.4213 109.696 46.0107 109.36 45.46C109.024 44.9093 108.856 44.2373 108.856 43.444V37.27H110.452ZM121.336 47.126C120.73 47.126 120.184 47.0187 119.698 46.804C119.222 46.58 118.844 46.2813 118.564 45.908C118.284 45.5253 118.135 45.1007 118.116 44.634H119.768C119.796 44.9607 119.95 45.236 120.23 45.46C120.52 45.6747 120.879 45.782 121.308 45.782C121.756 45.782 122.102 45.698 122.344 45.53C122.596 45.3527 122.722 45.1287 122.722 44.858C122.722 44.5687 122.582 44.354 122.302 44.214C122.032 44.074 121.598 43.92 121 43.752C120.422 43.5933 119.95 43.4393 119.586 43.29C119.222 43.1407 118.905 42.912 118.634 42.604C118.373 42.296 118.242 41.89 118.242 41.386C118.242 40.9753 118.364 40.602 118.606 40.266C118.849 39.9207 119.194 39.65 119.642 39.454C120.1 39.258 120.622 39.16 121.21 39.16C122.088 39.16 122.792 39.384 123.324 39.832C123.866 40.2707 124.155 40.8727 124.192 41.638H122.596C122.568 41.2927 122.428 41.0173 122.176 40.812C121.924 40.6067 121.584 40.504 121.154 40.504C120.734 40.504 120.412 40.5833 120.188 40.742C119.964 40.9007 119.852 41.1107 119.852 41.372C119.852 41.5773 119.927 41.75 120.076 41.89C120.226 42.03 120.408 42.142 120.622 42.226C120.837 42.3007 121.154 42.3987 121.574 42.52C122.134 42.6693 122.592 42.8233 122.946 42.982C123.31 43.1313 123.623 43.3553 123.884 43.654C124.146 43.9527 124.281 44.3493 124.29 44.844C124.29 45.2827 124.169 45.6747 123.926 46.02C123.684 46.3653 123.338 46.636 122.89 46.832C122.452 47.028 121.934 47.126 121.336 47.126Z" fill="#FFFBFB"/>
<path d="M142.912 40.9998H137L135.023 33.1348C135.011 33.0891 135.003 33.0422 135 32.9948C134.978 32.2738 135.772 31.7738 136.46 32.1038L155 40.9998L136.46 49.8958C135.78 50.2228 134.996 49.7368 135 49.0288C135.002 48.9655 135.014 48.9029 135.033 48.8428L136.5 43.9998" stroke="#FFFBFB" stroke-width="2" stroke-linecap="round" stroke-linejoin="round"/>
</g>
<defs>
<filter id="filter0_d" x="0" y="0" width="202" height="93" filterUnits="userSpaceOnUse" color-interpolation-filters="sRGB">
<feFlood flood-opacity="0" result="BackgroundImageFix"/>
<feColorMatrix in="SourceAlpha" type="matrix" values="0 0 0 0 0 0 0 0 0 0 0 0 0 0 0 0 0 0 127 0"/>
<feOffset dy="4"/>
<feGaussianBlur stdDeviation="12.5"/>
<feColorMatrix type="matrix" values="0 0 0 0 0 0 0 0 0 0.588235 0 0 0 0 0.996078 0 0 0 0.25 0"/>
<feBlend mode="normal" in2="BackgroundImageFix" result="effect1_dropShadow"/>
<feBlend mode="normal" in="SourceGraphic" in2="effect1_dropShadow" result="shape"/>
</filter>
</defs>
</svg>
