<svg width="122" height="43" viewBox="0 0 122 43" fill="none" xmlns="http://www.w3.org/2000/svg">
<rect width="122" height="43" rx="21.5" fill="#0096FE"/>
<path d="M22.5532 21.114C22.5532 20.162 22.7725 19.308 23.2112 18.552C23.6592 17.796 24.2612 17.208 25.0172 16.788C25.7825 16.3587 26.6178 16.144 27.5232 16.144C28.5592 16.144 29.4785 16.4007 30.2812 16.914C31.0932 17.418 31.6812 18.1367 32.0452 19.07H30.1272C29.8752 18.5567 29.5252 18.174 29.0772 17.922C28.6292 17.67 28.1112 17.544 27.5232 17.544C26.8792 17.544 26.3052 17.6887 25.8012 17.978C25.2972 18.2673 24.9005 18.6827 24.6112 19.224C24.3312 19.7653 24.1912 20.3953 24.1912 21.114C24.1912 21.8327 24.3312 22.4627 24.6112 23.004C24.9005 23.5453 25.2972 23.9653 25.8012 24.264C26.3052 24.5533 26.8792 24.698 27.5232 24.698C28.1112 24.698 28.6292 24.572 29.0772 24.32C29.5252 24.068 29.8752 23.6853 30.1272 23.172H32.0452C31.6812 24.1053 31.0932 24.824 30.2812 25.328C29.4785 25.832 28.5592 26.084 27.5232 26.084C26.6085 26.084 25.7732 25.874 25.0172 25.454C24.2612 25.0247 23.6592 24.432 23.2112 23.676C22.7725 22.92 22.5532 22.066 22.5532 21.114ZM37.2593 26.126C36.5313 26.126 35.8733 25.9627 35.2853 25.636C34.6973 25.3 34.2353 24.8333 33.8993 24.236C33.5633 23.6293 33.3953 22.9293 33.3953 22.136C33.3953 21.352 33.5679 20.6567 33.9133 20.05C34.2586 19.4433 34.7299 18.9767 35.3273 18.65C35.9246 18.3233 36.5919 18.16 37.3293 18.16C38.0666 18.16 38.7339 18.3233 39.3313 18.65C39.9286 18.9767 40.3999 19.4433 40.7453 20.05C41.0906 20.6567 41.2633 21.352 41.2633 22.136C41.2633 22.92 41.0859 23.6153 40.7313 24.222C40.3766 24.8287 39.8913 25.3 39.2753 25.636C38.6686 25.9627 37.9966 26.126 37.2593 26.126ZM37.2593 24.74C37.6699 24.74 38.0526 24.642 38.4073 24.446C38.7713 24.25 39.0653 23.956 39.2893 23.564C39.5133 23.172 39.6253 22.696 39.6253 22.136C39.6253 21.576 39.5179 21.1047 39.3033 20.722C39.0886 20.33 38.8039 20.036 38.4493 19.84C38.0946 19.644 37.7119 19.546 37.3013 19.546C36.8906 19.546 36.5079 19.644 36.1533 19.84C35.8079 20.036 35.5326 20.33 35.3273 20.722C35.1219 21.1047 35.0193 21.576 35.0193 22.136C35.0193 22.9667 35.2293 23.6107 35.6493 24.068C36.0786 24.516 36.6153 24.74 37.2593 24.74ZM46.733 18.16C47.3397 18.16 47.881 18.286 48.357 18.538C48.8423 18.79 49.2203 19.1633 49.491 19.658C49.7617 20.1527 49.897 20.75 49.897 21.45V26H48.315V21.688C48.315 20.9973 48.1423 20.47 47.797 20.106C47.4517 19.7327 46.9803 19.546 46.383 19.546C45.7857 19.546 45.3097 19.7327 44.955 20.106C44.6097 20.47 44.437 20.9973 44.437 21.688V26H42.841V18.286H44.437V19.168C44.6983 18.8507 45.0297 18.6033 45.431 18.426C45.8417 18.2487 46.2757 18.16 46.733 18.16ZM53.7948 19.588V23.858C53.7948 24.1473 53.8601 24.3573 53.9908 24.488C54.1308 24.6093 54.3641 24.67 54.6908 24.67H55.6708V26H54.4108C53.6921 26 53.1415 25.832 52.7588 25.496C52.3761 25.16 52.1848 24.614 52.1848 23.858V19.588H51.2748V18.286H52.1848V16.368H53.7948V18.286H55.6708V19.588H53.7948ZM56.6098 22.108C56.6098 21.3333 56.7685 20.6473 57.0858 20.05C57.4125 19.4527 57.8511 18.9907 58.4018 18.664C58.9618 18.328 59.5778 18.16 60.2498 18.16C60.8565 18.16 61.3838 18.2813 61.8318 18.524C62.2891 18.7573 62.6531 19.0513 62.9238 19.406V18.286H64.5338V26H62.9238V24.852C62.6531 25.216 62.2845 25.5193 61.8178 25.762C61.3511 26.0047 60.8191 26.126 60.2218 26.126C59.5591 26.126 58.9525 25.958 58.4018 25.622C57.8511 25.2767 57.4125 24.8007 57.0858 24.194C56.7685 23.578 56.6098 22.8827 56.6098 22.108ZM62.9238 22.136C62.9238 21.604 62.8118 21.142 62.5878 20.75C62.3731 20.358 62.0885 20.0593 61.7338 19.854C61.3791 19.6487 60.9965 19.546 60.5858 19.546C60.1751 19.546 59.7925 19.6487 59.4378 19.854C59.0831 20.05 58.7938 20.344 58.5698 20.736C58.3551 21.1187 58.2478 21.576 58.2478 22.108C58.2478 22.64 58.3551 23.1067 58.5698 23.508C58.7938 23.9093 59.0831 24.2173 59.4378 24.432C59.8018 24.6373 60.1845 24.74 60.5858 24.74C60.9965 24.74 61.3791 24.6373 61.7338 24.432C62.0885 24.2267 62.3731 23.928 62.5878 23.536C62.8118 23.1347 62.9238 22.668 62.9238 22.136ZM66.0981 22.136C66.0981 21.3427 66.2567 20.6473 66.5741 20.05C66.9007 19.4433 67.3487 18.9767 67.9181 18.65C68.4874 18.3233 69.1407 18.16 69.8781 18.16C70.8114 18.16 71.5814 18.384 72.1881 18.832C72.8041 19.2707 73.2194 19.9007 73.4341 20.722H71.7121C71.5721 20.3393 71.3481 20.0407 71.0401 19.826C70.7321 19.6113 70.3447 19.504 69.8781 19.504C69.2247 19.504 68.7021 19.7373 68.3101 20.204C67.9274 20.6613 67.7361 21.3053 67.7361 22.136C67.7361 22.9667 67.9274 23.6153 68.3101 24.082C68.7021 24.5487 69.2247 24.782 69.8781 24.782C70.8021 24.782 71.4134 24.376 71.7121 23.564H73.4341C73.2101 24.348 72.7901 24.9733 72.1741 25.44C71.5581 25.8973 70.7927 26.126 69.8781 26.126C69.1407 26.126 68.4874 25.9627 67.9181 25.636C67.3487 25.3 66.9007 24.8333 66.5741 24.236C66.2567 23.6293 66.0981 22.9293 66.0981 22.136ZM76.8866 19.588V23.858C76.8866 24.1473 76.9519 24.3573 77.0826 24.488C77.2226 24.6093 77.4559 24.67 77.7826 24.67H78.7626V26H77.5026C76.7839 26 76.2333 25.832 75.8506 25.496C75.4679 25.16 75.2766 24.614 75.2766 23.858V19.588H74.3666V18.286H75.2766V16.368H76.8866V18.286H78.7626V19.588H76.8866ZM85.4523 16.27V22.472C85.4523 23.2093 85.6436 23.7647 86.0263 24.138C86.4183 24.5113 86.9596 24.698 87.6503 24.698C88.3503 24.698 88.8916 24.5113 89.2743 24.138C89.6663 23.7647 89.8623 23.2093 89.8623 22.472V16.27H91.4583V22.444C91.4583 23.2373 91.2856 23.9093 90.9403 24.46C90.595 25.0107 90.133 25.4213 89.5543 25.692C88.9756 25.9627 88.3363 26.098 87.6363 26.098C86.9363 26.098 86.297 25.9627 85.7183 25.692C85.149 25.4213 84.6963 25.0107 84.3603 24.46C84.0243 23.9093 83.8563 23.2373 83.8563 22.444V16.27H85.4523ZM96.3363 26.126C95.7297 26.126 95.1837 26.0187 94.6983 25.804C94.2223 25.58 93.8443 25.2813 93.5643 24.908C93.2843 24.5253 93.135 24.1007 93.1163 23.634H94.7683C94.7963 23.9607 94.9503 24.236 95.2303 24.46C95.5197 24.6747 95.879 24.782 96.3083 24.782C96.7563 24.782 97.1017 24.698 97.3443 24.53C97.5963 24.3527 97.7223 24.1287 97.7223 23.858C97.7223 23.5687 97.5823 23.354 97.3023 23.214C97.0317 23.074 96.5977 22.92 96.0003 22.752C95.4217 22.5933 94.9503 22.4393 94.5863 22.29C94.2223 22.1407 93.905 21.912 93.6343 21.604C93.373 21.296 93.2423 20.89 93.2423 20.386C93.2423 19.9753 93.3637 19.602 93.6063 19.266C93.849 18.9207 94.1943 18.65 94.6423 18.454C95.0997 18.258 95.6223 18.16 96.2103 18.16C97.0877 18.16 97.7923 18.384 98.3243 18.832C98.8657 19.2707 99.155 19.8727 99.1923 20.638H97.5963C97.5683 20.2927 97.4283 20.0173 97.1763 19.812C96.9243 19.6067 96.5837 19.504 96.1543 19.504C95.7343 19.504 95.4123 19.5833 95.1883 19.742C94.9643 19.9007 94.8523 20.1107 94.8523 20.372C94.8523 20.5773 94.927 20.75 95.0763 20.89C95.2257 21.03 95.4077 21.142 95.6223 21.226C95.837 21.3007 96.1543 21.3987 96.5743 21.52C97.1343 21.6693 97.5917 21.8233 97.9463 21.982C98.3103 22.1313 98.623 22.3553 98.8843 22.654C99.1457 22.9527 99.281 23.3493 99.2903 23.844C99.2903 24.2827 99.169 24.6747 98.9263 25.02C98.6837 25.3653 98.3383 25.636 97.8903 25.832C97.4517 26.028 96.9337 26.126 96.3363 26.126Z" fill="#FFFBFB"/>
</svg>
