<svg width="219" height="36" viewBox="0 0 219 36" fill="none" xmlns="http://www.w3.org/2000/svg">
<path d="M29.3104 0.0909081H23.0206V23.8864H22.7138L6.28196 0.0909081H0.622869V35H6.94673V11.2216H7.23651L23.6854 35H29.3104V0.0909081ZM47.5192 35.5114C53.6214 35.5114 57.8146 32.5284 58.9055 27.9773L53.1442 27.3295C52.3089 29.5455 50.2635 30.7045 47.6044 30.7045C43.6158 30.7045 40.9737 28.0795 40.9226 23.5966H59.1612V21.7045C59.1612 12.517 53.6385 8.47727 47.1953 8.47727C39.6953 8.47727 34.8033 13.983 34.8033 22.0625C34.8033 30.2784 39.6271 35.5114 47.5192 35.5114ZM40.9396 19.4375C41.1271 16.0966 43.5987 13.2841 47.2805 13.2841C50.826 13.2841 53.2124 15.875 53.2464 19.4375H40.9396ZM77.4553 8.81818H72.2905V2.54545H66.12V8.81818H62.4041V13.5909H66.12V28.1477C66.0859 33.0739 69.6655 35.4943 74.3018 35.358C76.0575 35.3068 77.2678 34.9659 77.9325 34.7443L76.8928 29.9205C76.5518 30.0057 75.853 30.1591 75.0859 30.1591C73.5348 30.1591 72.2905 29.6136 72.2905 27.125V13.5909H77.4553V8.81818ZM88.0192 35H94.4624L99.3714 17.3068H99.7294L104.638 35H111.065L118.479 8.81818H112.173L107.638 27.125H107.383L102.678 8.81818H96.4567L91.7521 27.2273H91.5135L86.9112 8.81818H80.6214L88.0192 35ZM133.505 35.5114C141.175 35.5114 146.05 30.108 146.05 22.0114C146.05 13.8977 141.175 8.47727 133.505 8.47727C125.835 8.47727 120.96 13.8977 120.96 22.0114C120.96 30.108 125.835 35.5114 133.505 35.5114ZM133.539 30.5682C129.295 30.5682 127.215 26.7841 127.215 21.9943C127.215 17.2045 129.295 13.3693 133.539 13.3693C137.715 13.3693 139.795 17.2045 139.795 21.9943C139.795 26.7841 137.715 30.5682 133.539 30.5682ZM151.288 35H157.458V19.608C157.458 16.2841 159.964 13.9318 163.356 13.9318C164.396 13.9318 165.691 14.1193 166.219 14.2898V8.61364C165.657 8.51136 164.685 8.44318 164.004 8.44318C161.004 8.44318 158.498 10.1477 157.543 13.1818H157.271V8.81818H151.288V35ZM170.319 35H176.489V26.2045L178.739 23.8011L186.751 35H194.131L183.393 20.1193L193.535 8.81818H186.325L176.915 19.3352H176.489V0.0909081H170.319V35ZM218.34 15.7386C217.488 11.3068 213.942 8.47727 207.806 8.47727C201.499 8.47727 197.204 11.5795 197.221 16.4205C197.204 20.2386 199.556 22.7614 204.585 23.8011L209.05 24.7386C211.454 25.267 212.579 26.2386 212.579 27.7216C212.579 29.5114 210.636 30.858 207.704 30.858C204.874 30.858 203.033 29.6307 202.505 27.2784L196.488 27.858C197.255 32.6648 201.295 35.5114 207.721 35.5114C214.266 35.5114 218.886 32.1193 218.903 27.1591C218.886 23.4261 216.482 21.142 211.539 20.0682L207.073 19.1136C204.414 18.517 203.357 17.5966 203.374 16.0795C203.357 14.3068 205.317 13.0795 207.891 13.0795C210.738 13.0795 212.238 14.6307 212.715 16.3523L218.34 15.7386Z" fill="#071C4D"/>
</svg>
