<svg width="244" height="40" viewBox="0 0 244 40" fill="none" xmlns="http://www.w3.org/2000/svg">
<path d="M40.1427 7.45455C40.1427 3.26776 37.637 0.730113 34.2492 0.730113C30.8486 0.730113 28.3493 3.26776 28.3493 7.45455C28.3493 11.6349 30.8486 14.179 34.2492 14.179C37.637 14.179 40.1427 11.6413 40.1427 7.45455ZM38.1867 7.45455C38.1867 10.6442 36.4992 12.3764 34.2492 12.3764C31.9928 12.3764 30.3117 10.6442 30.3117 7.45455C30.3117 4.26491 31.9928 2.53267 34.2492 2.53267C36.4992 2.53267 38.1867 4.26491 38.1867 7.45455ZM48.6713 9.92827C48.6776 11.5966 47.4376 12.3892 46.3637 12.3892C45.1812 12.3892 44.363 11.5327 44.363 10.1967V4.18182H42.4518V10.4268C42.4518 12.8622 43.7877 14.1278 45.6734 14.1278C47.1499 14.1278 48.1535 13.348 48.6073 12.2997H48.7096V14H50.5889V4.18182H48.6713V9.92827ZM53.1569 14H55.0681V8.00426C55.0681 6.71946 56.0589 5.79261 57.414 5.79261C57.8103 5.79261 58.2577 5.86293 58.4111 5.90767V4.07955C58.2194 4.05398 57.8422 4.0348 57.5993 4.0348C56.4488 4.0348 55.4644 4.68679 55.1064 5.74148H55.0042V4.18182H53.1569V14ZM64.3366 2.60938H68.4147V14H70.3834V2.60938H74.468V0.909091H64.3366V2.60938ZM75.5338 14H77.445V8.00426C77.445 6.71946 78.4358 5.79261 79.7909 5.79261C80.1872 5.79261 80.6347 5.86293 80.7881 5.90767V4.07955C80.5963 4.05398 80.2192 4.0348 79.9763 4.0348C78.8257 4.0348 77.8414 4.68679 77.4834 5.74148H77.3811V4.18182H75.5338V14ZM88.6615 9.92827C88.6679 11.5966 87.4278 12.3892 86.354 12.3892C85.1714 12.3892 84.3532 11.5327 84.3532 10.1967V4.18182H82.442V10.4268C82.442 12.8622 83.778 14.1278 85.6636 14.1278C87.1402 14.1278 88.1437 13.348 88.5976 12.2997H88.6998V14H90.5791V4.18182H88.6615V9.92827ZM100.504 6.57884C100.108 5.05114 98.9127 4.05398 96.7906 4.05398C94.5725 4.05398 93.0001 5.22372 93.0001 6.96236C93.0001 8.35582 93.8438 9.28267 95.6847 9.69176L97.3467 10.0561C98.2927 10.267 98.7338 10.6889 98.7338 11.3026C98.7338 12.0632 97.922 12.6577 96.6691 12.6577C95.5249 12.6577 94.7899 12.1655 94.5597 11.2003L92.7124 11.4815C93.032 13.2202 94.4767 14.1982 96.6819 14.1982C99.0534 14.1982 100.696 12.9389 100.696 11.1619C100.696 9.77486 99.814 8.91832 98.0115 8.50284L96.4518 8.14489C95.3715 7.8892 94.9049 7.52486 94.9113 6.86009C94.9049 6.10582 95.7231 5.56889 96.8097 5.56889C97.9987 5.56889 98.5484 6.22727 98.7721 6.88565L100.504 6.57884ZM107.381 4.18182H105.367V1.82955H103.456V4.18182H102.018V5.71591H103.456V11.5135C103.449 13.2969 104.811 14.1598 106.32 14.1278C106.927 14.1214 107.336 14.0064 107.56 13.9233L107.214 12.3445C107.087 12.37 106.85 12.4276 106.543 12.4276C105.923 12.4276 105.367 12.223 105.367 11.1172V5.71591H107.381V4.18182ZM113.621 14.1982C115.762 14.1982 117.277 13.1435 117.712 11.5455L115.903 11.2195C115.558 12.1463 114.727 12.6193 113.64 12.6193C112.004 12.6193 110.904 11.5582 110.853 9.66619H117.833V8.98864C117.833 5.44105 115.711 4.05398 113.487 4.05398C110.751 4.05398 108.948 6.13778 108.948 9.15483C108.948 12.2038 110.725 14.1982 113.621 14.1982ZM110.859 8.23438C110.936 6.84091 111.946 5.63281 113.499 5.63281C114.982 5.63281 115.954 6.73224 115.96 8.23438H110.859ZM123.629 14.1918C125.419 14.1918 126.122 13.0987 126.467 12.4723H126.627V14H128.494V0.909091H126.582V5.77344H126.467C126.122 5.16619 125.47 4.05398 123.642 4.05398C121.271 4.05398 119.525 5.92685 119.525 9.11009C119.525 12.2869 121.245 14.1918 123.629 14.1918ZM124.051 12.5618C122.344 12.5618 121.456 11.0597 121.456 9.09091C121.456 7.14134 122.325 5.67756 124.051 5.67756C125.719 5.67756 126.614 7.03906 126.614 9.09091C126.614 11.1555 125.7 12.5618 124.051 12.5618ZM147.011 5.16619C146.564 2.36648 144.371 0.730113 141.604 0.730113C138.216 0.730113 135.717 3.26776 135.717 7.45455C135.717 11.6413 138.203 14.179 141.604 14.179C144.48 14.179 146.583 12.3764 147.011 9.78764L145.017 9.78125C144.678 11.456 143.272 12.3764 141.616 12.3764C139.373 12.3764 137.679 10.657 137.679 7.45455C137.679 4.2777 139.366 2.53267 141.623 2.53267C143.291 2.53267 144.691 3.4723 145.017 5.16619H147.011ZM153.357 14.1982C156.125 14.1982 157.934 12.1719 157.934 9.13565C157.934 6.08026 156.125 4.05398 153.357 4.05398C150.589 4.05398 148.78 6.08026 148.78 9.13565C148.78 12.1719 150.589 14.1982 153.357 14.1982ZM153.363 12.5938C151.554 12.5938 150.711 11.0149 150.711 9.12926C150.711 7.25 151.554 5.65199 153.363 5.65199C155.16 5.65199 156.003 7.25 156.003 9.12926C156.003 11.0149 155.16 12.5938 153.363 12.5938ZM160.067 14H161.978V7.94673C161.978 6.62358 162.905 5.70312 163.992 5.70312C165.053 5.70312 165.788 6.40625 165.788 7.47372V14H167.693V7.74219C167.693 6.55966 168.415 5.70312 169.661 5.70312C170.671 5.70312 171.502 6.26562 171.502 7.59517V14H173.414V7.41619C173.414 5.17259 172.161 4.05398 170.384 4.05398C168.971 4.05398 167.91 4.73153 167.437 5.77983H167.335C166.907 4.70597 166.005 4.05398 164.695 4.05398C163.397 4.05398 162.432 4.69957 162.023 5.77983H161.902V4.18182H160.067V14ZM175.975 17.6818H177.886V12.4723H178.002C178.347 13.0987 179.05 14.1918 180.84 14.1918C183.217 14.1918 184.943 12.2869 184.943 9.11009C184.943 5.92685 183.192 4.05398 180.82 4.05398C178.999 4.05398 178.34 5.16619 178.002 5.77344H177.842V4.18182H175.975V17.6818ZM177.848 9.09091C177.848 7.03906 178.743 5.67756 180.411 5.67756C182.144 5.67756 183.013 7.14134 183.013 9.09091C183.013 11.0597 182.118 12.5618 180.411 12.5618C178.769 12.5618 177.848 11.1555 177.848 9.09091ZM189.942 14.2173C191.565 14.2173 192.479 13.3928 192.844 12.6577H192.921V14H194.787V7.48011C194.787 4.62287 192.537 4.05398 190.977 4.05398C189.2 4.05398 187.564 4.76989 186.925 6.55966L188.721 6.96875C189.002 6.27202 189.718 5.60085 191.003 5.60085C192.237 5.60085 192.869 6.24645 192.869 7.35866V7.40341C192.869 8.10014 192.153 8.08736 190.389 8.2919C188.529 8.50923 186.624 8.99503 186.624 11.2259C186.624 13.1562 188.075 14.2173 189.942 14.2173ZM190.357 12.6832C189.277 12.6832 188.497 12.1974 188.497 11.2514C188.497 10.2287 189.405 9.86435 190.511 9.71733C191.131 9.63423 192.601 9.46804 192.876 9.19318V10.4588C192.876 11.6222 191.949 12.6832 190.357 12.6832ZM199.244 8.17045C199.244 6.6044 200.203 5.70952 201.532 5.70952C202.83 5.70952 203.616 6.55966 203.616 7.98509V14H205.527V7.75497C205.527 5.32599 204.191 4.05398 202.184 4.05398C200.708 4.05398 199.742 4.73793 199.289 5.77983H199.167V4.18182H197.333V14H199.244V8.17045ZM208.947 17.6818C210.526 17.6818 211.523 16.8572 212.092 15.3104L216.151 4.20099L214.086 4.18182L211.6 11.8011H211.497L209.011 4.18182H206.965L210.558 14.1278L210.321 14.7798C209.835 16.0838 209.152 16.1925 208.103 15.9048L207.643 17.4709C207.873 17.5732 208.372 17.6818 208.947 17.6818ZM0.734109 22.9091V36H2.61337V26.5206H2.73482L6.59561 35.9808H8.15527L12.0161 26.527H12.1375V36H14.0168V22.9091H11.6198L7.45215 33.0852H7.29874L3.13113 22.9091H0.734109ZM20.8707 36.1982C23.6384 36.1982 25.4474 34.1719 25.4474 31.1357C25.4474 28.0803 23.6384 26.054 20.8707 26.054C18.1029 26.054 16.2939 28.0803 16.2939 31.1357C16.2939 34.1719 18.1029 36.1982 20.8707 36.1982ZM20.877 34.5938C19.0681 34.5938 18.2243 33.0149 18.2243 31.1293C18.2243 29.25 19.0681 27.652 20.877 27.652C22.6732 27.652 23.517 29.25 23.517 31.1293C23.517 33.0149 22.6732 34.5938 20.877 34.5938ZM27.5807 36H29.4919V30.0043C29.4919 28.7195 30.4827 27.7926 31.8378 27.7926C32.2341 27.7926 32.6816 27.8629 32.835 27.9077V26.0795C32.6432 26.054 32.2661 26.0348 32.0232 26.0348C30.8726 26.0348 29.8882 26.6868 29.5303 27.7415H29.428V26.1818H27.5807V36ZM38.3689 36.1982C40.5102 36.1982 42.0251 35.1435 42.4598 33.5455L40.6508 33.2195C40.3057 34.1463 39.4747 34.6193 38.3881 34.6193C36.7517 34.6193 35.6523 33.5582 35.6011 31.6662H42.5812V30.9886C42.5812 27.4411 40.4591 26.054 38.2346 26.054C35.4988 26.054 33.6963 28.1378 33.6963 31.1548C33.6963 34.2038 35.4733 36.1982 38.3689 36.1982ZM35.6075 30.2344C35.6842 28.8409 36.6942 27.6328 38.2474 27.6328C39.7304 27.6328 40.702 28.7322 40.7084 30.2344H35.6075ZM48.9733 24.6094H53.0514V36H55.0202V24.6094H59.1047V22.9091H48.9733V24.6094ZM63.1013 30.1705C63.1013 28.6044 64.0921 27.7095 65.4536 27.7095C66.7703 27.7095 67.5566 28.5469 67.5566 29.9851V36H69.4678V29.755C69.4678 27.3068 68.1254 26.054 66.1056 26.054C64.5779 26.054 63.6574 26.7188 63.1972 27.7798H63.0757V22.9091H61.1901V36H63.1013V30.1705ZM74.8754 36.2173C76.499 36.2173 77.4131 35.3928 77.7774 34.6577H77.8541V36H79.7206V29.4801C79.7206 26.6229 77.4706 26.054 75.911 26.054C74.134 26.054 72.4976 26.7699 71.8584 28.5597L73.6546 28.9688C73.9358 28.272 74.6517 27.6009 75.9365 27.6009C77.1702 27.6009 77.803 28.2464 77.803 29.3587V29.4034C77.803 30.1001 77.0871 30.0874 75.3229 30.2919C73.4628 30.5092 71.558 30.995 71.558 33.2259C71.558 35.1562 73.009 36.2173 74.8754 36.2173ZM75.2909 34.6832C74.2107 34.6832 73.4308 34.1974 73.4308 33.2514C73.4308 32.2287 74.3385 31.8643 75.4443 31.7173C76.0644 31.6342 77.5345 31.468 77.8094 31.1932V32.4588C77.8094 33.6222 76.8825 34.6832 75.2909 34.6832ZM84.1775 30.1705C84.1775 28.6044 85.1363 27.7095 86.4658 27.7095C87.7634 27.7095 88.5496 28.5597 88.5496 29.9851V36H90.4608V29.755C90.4608 27.326 89.1249 26.054 87.1178 26.054C85.6412 26.054 84.676 26.7379 84.2222 27.7798H84.1008V26.1818H82.2662V36H84.1775V30.1705ZM103.029 22.9091V32.1903C103.023 33.6989 102.32 34.5043 101.067 34.5043C99.9099 34.5043 99.1045 33.8139 99.0981 32.7273H97.1357C97.1357 34.9389 98.7977 36.179 101.016 36.179C103.419 36.179 104.992 34.7088 104.998 32.1903V22.9091H103.029ZM113.939 31.9283C113.945 33.5966 112.705 34.3892 111.631 34.3892C110.449 34.3892 109.631 33.5327 109.631 32.1967V26.1818H107.719V32.4268C107.719 34.8622 109.055 36.1278 110.941 36.1278C112.418 36.1278 113.421 35.348 113.875 34.2997H113.977V36H115.856V26.1818H113.939V31.9283ZM125.782 28.5788C125.385 27.0511 124.19 26.054 122.068 26.054C119.85 26.054 118.277 27.2237 118.277 28.9624C118.277 30.3558 119.121 31.2827 120.962 31.6918L122.624 32.0561C123.57 32.267 124.011 32.6889 124.011 33.3026C124.011 34.0632 123.199 34.6577 121.946 34.6577C120.802 34.6577 120.067 34.1655 119.837 33.2003L117.99 33.4815C118.309 35.2202 119.754 36.1982 121.959 36.1982C124.331 36.1982 125.973 34.9389 125.973 33.1619C125.973 31.7749 125.091 30.9183 123.289 30.5028L121.729 30.1449C120.649 29.8892 120.182 29.5249 120.189 28.8601C120.182 28.1058 121 27.5689 122.087 27.5689C123.276 27.5689 123.826 28.2273 124.049 28.8857L125.782 28.5788ZM132.658 26.1818H130.644V23.8295H128.733V26.1818H127.295V27.7159H128.733V33.5135C128.727 35.2969 130.088 36.1598 131.597 36.1278C132.204 36.1214 132.613 36.0064 132.837 35.9233L132.492 34.3445C132.364 34.37 132.127 34.4276 131.821 34.4276C131.201 34.4276 130.644 34.223 130.644 33.1172V27.7159H132.658V26.1818ZM150.562 27.1662C150.115 24.3665 147.922 22.7301 145.154 22.7301C141.767 22.7301 139.267 25.2678 139.267 29.4545C139.267 33.6413 141.754 36.179 145.154 36.179C148.031 36.179 150.134 34.3764 150.562 31.7876L148.568 31.7812C148.229 33.456 146.823 34.3764 145.167 34.3764C142.924 34.3764 141.23 32.657 141.23 29.4545C141.23 26.2777 142.917 24.5327 145.174 24.5327C146.842 24.5327 148.242 25.4723 148.568 27.1662H150.562ZM156.908 36.1982C159.676 36.1982 161.484 34.1719 161.484 31.1357C161.484 28.0803 159.676 26.054 156.908 26.054C154.14 26.054 152.331 28.0803 152.331 31.1357C152.331 34.1719 154.14 36.1982 156.908 36.1982ZM156.914 34.5938C155.105 34.5938 154.261 33.0149 154.261 31.1293C154.261 29.25 155.105 27.652 156.914 27.652C158.71 27.652 159.554 29.25 159.554 31.1293C159.554 33.0149 158.71 34.5938 156.914 34.5938ZM167.753 36.1982C170.521 36.1982 172.33 34.1719 172.33 31.1357C172.33 28.0803 170.521 26.054 167.753 26.054C164.986 26.054 163.177 28.0803 163.177 31.1357C163.177 34.1719 164.986 36.1982 167.753 36.1982ZM167.76 34.5938C165.951 34.5938 165.107 33.0149 165.107 31.1293C165.107 29.25 165.951 27.652 167.76 27.652C169.556 27.652 170.4 29.25 170.4 31.1293C170.4 33.0149 169.556 34.5938 167.76 34.5938ZM174.464 39.6818H176.375V34.4723H176.49C176.835 35.0987 177.538 36.1918 179.328 36.1918C181.706 36.1918 183.432 34.2869 183.432 31.1101C183.432 27.9268 181.68 26.054 179.309 26.054C177.487 26.054 176.829 27.1662 176.49 27.7734H176.33V26.1818H174.464V39.6818ZM176.336 31.0909C176.336 29.0391 177.231 27.6776 178.9 27.6776C180.632 27.6776 181.501 29.1413 181.501 31.0909C181.501 33.0597 180.606 34.5618 178.9 34.5618C177.257 34.5618 176.336 33.1555 176.336 31.0909ZM189.804 36.1982C191.946 36.1982 193.461 35.1435 193.895 33.5455L192.086 33.2195C191.741 34.1463 190.91 34.6193 189.824 34.6193C188.187 34.6193 187.088 33.5582 187.037 31.6662H194.017V30.9886C194.017 27.4411 191.895 26.054 189.67 26.054C186.934 26.054 185.132 28.1378 185.132 31.1548C185.132 34.2038 186.909 36.1982 189.804 36.1982ZM187.043 30.2344C187.12 28.8409 188.13 27.6328 189.683 27.6328C191.166 27.6328 192.138 28.7322 192.144 30.2344H187.043ZM196.137 36H198.049V30.0043C198.049 28.7195 199.039 27.7926 200.394 27.7926C200.791 27.7926 201.238 27.8629 201.392 27.9077V26.0795C201.2 26.054 200.823 26.0348 200.58 26.0348C199.429 26.0348 198.445 26.6868 198.087 27.7415H197.985V26.1818H196.137V36ZM205.815 36.2173C207.438 36.2173 208.353 35.3928 208.717 34.6577H208.794V36H210.66V29.4801C210.66 26.6229 208.41 26.054 206.85 26.054C205.073 26.054 203.437 26.7699 202.798 28.5597L204.594 28.9688C204.875 28.272 205.591 27.6009 206.876 27.6009C208.11 27.6009 208.742 28.2464 208.742 29.3587V29.4034C208.742 30.1001 208.027 30.0874 206.262 30.2919C204.402 30.5092 202.497 30.995 202.497 33.2259C202.497 35.1562 203.948 36.2173 205.815 36.2173ZM206.23 34.6832C205.15 34.6832 204.37 34.1974 204.37 33.2514C204.37 32.2287 205.278 31.8643 206.384 31.7173C207.004 31.6342 208.474 31.468 208.749 31.1932V32.4588C208.749 33.6222 207.822 34.6832 206.23 34.6832ZM217.789 26.1818H215.775V23.8295H213.864V26.1818H212.426V27.7159H213.864V33.5135C213.858 35.2969 215.219 36.1598 216.728 36.1278C217.335 36.1214 217.744 36.0064 217.968 35.9233L217.623 34.3445C217.495 34.37 217.258 34.4276 216.951 34.4276C216.331 34.4276 215.775 34.223 215.775 33.1172V27.7159H217.789V26.1818ZM219.903 36H221.814V26.1818H219.903V36ZM220.868 24.6669C221.527 24.6669 222.076 24.1555 222.076 23.5291C222.076 22.9027 221.527 22.3849 220.868 22.3849C220.203 22.3849 219.66 22.9027 219.66 23.5291C219.66 24.1555 220.203 24.6669 220.868 24.6669ZM228.521 36.1982C231.289 36.1982 233.098 34.1719 233.098 31.1357C233.098 28.0803 231.289 26.054 228.521 26.054C225.753 26.054 223.944 28.0803 223.944 31.1357C223.944 34.1719 225.753 36.1982 228.521 36.1982ZM228.527 34.5938C226.718 34.5938 225.875 33.0149 225.875 31.1293C225.875 29.25 226.718 27.652 228.527 27.652C230.324 27.652 231.167 29.25 231.167 31.1293C231.167 33.0149 230.324 34.5938 228.527 34.5938ZM237.142 30.1705C237.142 28.6044 238.101 27.7095 239.431 27.7095C240.728 27.7095 241.514 28.5597 241.514 29.9851V36H243.426V29.755C243.426 27.326 242.09 26.054 240.083 26.054C238.606 26.054 237.641 26.7379 237.187 27.7798H237.066V26.1818H235.231V36H237.142V30.1705Z" fill="#797777"/>
</svg>
